:Info:
Movie Title______1920 Evil Returns 2012

Genre____________Horror
Format___________mkv
Language_________Hindi

StotyLine:
This story revolves around a famous poet who meets a woman who is in trouble. In order to treat her, he takes her to 

Shimla in a big hospital, but soon that woman gets possessed by devil and goes out of control. Now the question remains 

that what is the relation that poet shares with her which compelled him to go to any extent to save her, why she was 

possessed by devil and who is the devil.


Video
Format                           : MPEG-4 Visual
Format profile                   : Advanced Simple@L5
Format settings, BVOP            : Yes
Format settings, QPel            : No
Format settings, GMC             : No warppoints
Format settings, Matrix          : Default (H.263)
Codec ID                         : XVID
Codec ID/Hint                    : XviD
Duration                         : 1h 55mn
Bit rate                         : 666 Kbps
Width                            : 688 pixels
Height                           : 288 pixels
Display aspect ratio             : 2.35:1
Frame rate                       : 29.970 fps
Color space                      : YUV
Chroma subsampling               : 4:2:0
Bit depth                        : 8 bits
Scan type                        : Progressive
Compression mode                 : Lossy
Bits/(Pixel*Frame)               : 0.112
Stream size                      : 551 MiB (82%)
Writing library                  : XviD 1.2.1 (UTC 2008-12-04)

Audio
Format                           : AC-3
Format/Info                      : Audio Coding 3
Mode extension                   : CM (complete main)
Muxing mode                      : Header stripping
Codec ID                         : A_AC3
Duration                         : 1h 55mn
Bit rate mode                    : Constant
Bit rate                         : 128 Kbps
Channel(s)                       : 6 channels
Channel positions                : Front: L C R, Side: L R, LFE
Sampling rate                    : 48.0 KHz
Bit depth                        : 16 bits
Compression mode                 : Lossy
Delay relative to video          : 9ms
Stream size                      : 106 MiB (16%)

::Note::
A sample is attached for viewing file quality.
::Support::
Please seed and comment after downloading
::RECOMMENDED MEDIA PLAYER::
llllllll VLC Media Player llll
llllllll The KM Player lllllll
